<mxfile host="app.diagrams.net" modified="2020-08-07T09:15:58.768Z" agent="5.0 (Macintosh; Intel Mac OS X 10_15_5) AppleWebKit/537.36 (KHTML, like Gecko) Chrome/84.0.4147.105 Safari/537.36" etag="U3CQlnBDvOiXUyTfaEhw" version="13.5.8" type="github">
  <diagram id="Bj8yiM3PkKrm-j6vhJCb" name="Page-1">
    <mxGraphModel dx="2066" dy="1154" grid="1" gridSize="10" guides="1" tooltips="1" connect="1" arrows="1" fold="1" page="1" pageScale="1" pageWidth="827" pageHeight="1169" math="0" shadow="0">
      <root>
        <mxCell id="0" />
        <mxCell id="1" parent="0" />
        <mxCell id="RIRFxBYO_630-w2cnjjM-1" value="" style="rounded=1;whiteSpace=wrap;html=1;fillColor=#dae8fc;strokeColor=#6c8ebf;" vertex="1" parent="1">
          <mxGeometry x="400" y="280" width="200" height="80" as="geometry" />
        </mxCell>
        <mxCell id="RIRFxBYO_630-w2cnjjM-2" value="" style="rounded=1;whiteSpace=wrap;html=1;fillColor=#ffe6cc;strokeColor=#d79b00;" vertex="1" parent="1">
          <mxGeometry x="400" y="410" width="200" height="80" as="geometry" />
        </mxCell>
        <mxCell id="RIRFxBYO_630-w2cnjjM-10" style="edgeStyle=orthogonalEdgeStyle;rounded=0;orthogonalLoop=1;jettySize=auto;html=1;exitX=1;exitY=0.5;exitDx=0;exitDy=0;fillColor=#d5e8d4;strokeColor=#82b366;strokeWidth=3;" edge="1" parent="1" source="RIRFxBYO_630-w2cnjjM-3" target="RIRFxBYO_630-w2cnjjM-6">
          <mxGeometry relative="1" as="geometry" />
        </mxCell>
        <mxCell id="RIRFxBYO_630-w2cnjjM-3" value="pipe&lt;br&gt;buffer" style="ellipse;whiteSpace=wrap;html=1;aspect=fixed;" vertex="1" parent="1">
          <mxGeometry x="500" y="425" width="50" height="50" as="geometry" />
        </mxCell>
        <mxCell id="RIRFxBYO_630-w2cnjjM-4" value="Kernel" style="text;html=1;strokeColor=none;fillColor=none;align=center;verticalAlign=middle;whiteSpace=wrap;rounded=0;" vertex="1" parent="1">
          <mxGeometry x="430" y="440" width="40" height="20" as="geometry" />
        </mxCell>
        <mxCell id="RIRFxBYO_630-w2cnjjM-5" value="Process" style="text;html=1;strokeColor=none;fillColor=none;align=center;verticalAlign=middle;whiteSpace=wrap;rounded=0;" vertex="1" parent="1">
          <mxGeometry x="430" y="310" width="40" height="20" as="geometry" />
        </mxCell>
        <mxCell id="RIRFxBYO_630-w2cnjjM-6" value="fd[1]" style="text;html=1;strokeColor=none;fillColor=none;align=center;verticalAlign=middle;whiteSpace=wrap;rounded=0;" vertex="1" parent="1">
          <mxGeometry x="540" y="300" width="40" height="20" as="geometry" />
        </mxCell>
        <mxCell id="RIRFxBYO_630-w2cnjjM-9" style="edgeStyle=orthogonalEdgeStyle;rounded=0;orthogonalLoop=1;jettySize=auto;html=1;entryX=0;entryY=0.5;entryDx=0;entryDy=0;strokeWidth=3;fillColor=#d5e8d4;strokeColor=#82b366;" edge="1" parent="1" source="RIRFxBYO_630-w2cnjjM-7" target="RIRFxBYO_630-w2cnjjM-3">
          <mxGeometry relative="1" as="geometry">
            <Array as="points">
              <mxPoint x="510" y="373" />
              <mxPoint x="480" y="373" />
              <mxPoint x="480" y="450" />
            </Array>
          </mxGeometry>
        </mxCell>
        <mxCell id="RIRFxBYO_630-w2cnjjM-7" value="fd[0]" style="text;html=1;strokeColor=none;fillColor=none;align=center;verticalAlign=middle;whiteSpace=wrap;rounded=0;" vertex="1" parent="1">
          <mxGeometry x="490" y="300" width="40" height="20" as="geometry" />
        </mxCell>
      </root>
    </mxGraphModel>
  </diagram>
</mxfile>
